<svg xmlns="http://www.w3.org/2000/svg" viewBox="0 0 294.28 112.04"><defs><style>.cls-1{fill:none;stroke:#97d9eb;stroke-miterlimit:10;stroke-width:0.25px;}</style></defs><title>blue_zigzag</title><g id="Layer_2" data-name="Layer 2"><g id="Layer_1-2" data-name="Layer 1"><path class="cls-1" d="M0,111.23c21-2.95,21.76,2.76,42.72-.19s20.16-8.65,41.12-11.6,21.76,2.76,42.72-.19,20.16-8.65,41.12-11.6,21.76,2.76,42.72-.19,20.16-8.65,41.12-11.6,21.76,2.76,42.73-.19"/><path class="cls-1" d="M0,108.35c21-2.95,21.76,2.76,42.72-.19s20.16-8.65,41.12-11.6,21.76,2.76,42.72-.19,20.16-8.65,41.12-11.6,21.76,2.76,42.72-.19,20.16-8.65,41.12-11.6,21.76,2.76,42.73-.19"/><path class="cls-1" d="M0,105.47c21-2.95,21.76,2.76,42.72-.19s20.16-8.65,41.12-11.6,21.76,2.76,42.72-.19,20.16-8.65,41.12-11.6,21.76,2.76,42.72-.19,20.16-8.65,41.12-11.6,21.76,2.76,42.73-.19"/><path class="cls-1" d="M0,102.59c21-2.95,21.76,2.76,42.72-.19s20.16-8.65,41.12-11.6,21.76,2.76,42.72-.19S146.73,82,167.69,79s21.76,2.76,42.72-.19,20.16-8.65,41.12-11.6S273.3,70,294.27,67"/><path class="cls-1" d="M0,99.71c21-2.95,21.76,2.76,42.72-.19s20.16-8.65,41.12-11.6,21.76,2.76,42.72-.19,20.16-8.65,41.12-11.6,21.76,2.76,42.72-.19,20.16-8.65,41.12-11.6,21.76,2.76,42.73-.19"/><path class="cls-1" d="M0,96.83c21-2.95,21.76,2.76,42.72-.19S62.89,88,83.85,85s21.76,2.76,42.72-.19,20.16-8.65,41.12-11.6,21.76,2.76,42.72-.19,20.16-8.65,41.12-11.6,21.76,2.76,42.73-.19"/><path class="cls-1" d="M0,93.95c21-2.95,21.76,2.76,42.72-.19s20.16-8.65,41.12-11.6,21.76,2.76,42.72-.19,20.16-8.65,41.12-11.6,21.76,2.76,42.72-.19,20.16-8.65,41.12-11.6,21.76,2.76,42.73-.19"/><path class="cls-1" d="M0,91.07c21-2.95,21.76,2.76,42.72-.19s20.16-8.65,41.12-11.6,21.76,2.76,42.72-.19,20.16-8.65,41.12-11.6,21.76,2.76,42.72-.19,20.16-8.65,41.12-11.6,21.76,2.76,42.73-.19"/><path class="cls-1" d="M0,88.19c21-2.95,21.76,2.76,42.72-.19s20.16-8.65,41.12-11.6,21.76,2.76,42.72-.19,20.16-8.65,41.12-11.6,21.76,2.76,42.72-.19,20.16-8.65,41.12-11.6,21.76,2.76,42.73-.19"/><path class="cls-1" d="M0,85.31c21-2.95,21.76,2.76,42.72-.19s20.16-8.65,41.12-11.6,21.76,2.76,42.72-.19,20.16-8.65,41.12-11.6,21.76,2.76,42.72-.19S230.57,52.9,251.54,50s21.76,2.76,42.73-.19"/><path class="cls-1" d="M0,82.43c21-2.95,21.76,2.76,42.72-.19s20.16-8.65,41.12-11.6,21.76,2.76,42.72-.19,20.16-8.65,41.12-11.6,21.76,2.76,42.72-.19,20.16-8.65,41.12-11.6,21.76,2.76,42.73-.19"/><path class="cls-1" d="M0,79.55c21-2.95,21.76,2.76,42.72-.19s20.16-8.65,41.12-11.6,21.76,2.76,42.72-.19,20.16-8.65,41.12-11.6,21.76,2.76,42.72-.19,20.16-8.65,41.12-11.6S273.3,47,294.27,44"/><path class="cls-1" d="M0,76.67c21-2.95,21.76,2.76,42.72-.19s20.16-8.65,41.12-11.6,21.76,2.76,42.72-.19S146.73,56,167.69,53.1s21.76,2.76,42.72-.19,20.16-8.65,41.12-11.6,21.76,2.76,42.73-.19"/><path class="cls-1" d="M0,73.79c21-2.95,21.76,2.76,42.72-.19S62.89,65,83.85,62s21.76,2.76,42.72-.19,20.16-8.65,41.12-11.6S189.45,53,210.41,50s20.16-8.65,41.12-11.6,21.76,2.76,42.73-.19"/><path class="cls-1" d="M0,70.91c21-2.95,21.76,2.76,42.72-.19s20.16-8.65,41.12-11.6,21.76,2.76,42.72-.19,20.16-8.65,41.12-11.6,21.76,2.76,42.72-.19,20.16-8.65,41.12-11.6,21.76,2.76,42.73-.19"/><path class="cls-1" d="M0,68c21-2.95,21.76,2.76,42.72-.19s20.16-8.65,41.12-11.6,21.76,2.76,42.72-.19,20.16-8.65,41.12-11.6,21.76,2.76,42.72-.19,20.16-8.65,41.12-11.6,21.76,2.76,42.73-.19"/><path class="cls-1" d="M0,65.15C21,62.2,21.78,67.91,42.73,65s20.16-8.65,41.12-11.6,21.76,2.76,42.72-.19,20.16-8.65,41.12-11.6,21.76,2.76,42.72-.19,20.16-8.65,41.12-11.6,21.76,2.76,42.73-.19"/><path class="cls-1" d="M0,62.27c21-2.95,21.76,2.76,42.72-.19s20.16-8.65,41.12-11.6,21.76,2.76,42.72-.19,20.16-8.65,41.12-11.6,21.76,2.76,42.72-.19,20.16-8.65,41.12-11.6,21.76,2.76,42.73-.19"/><path class="cls-1" d="M0,59.39c21-2.95,21.76,2.76,42.72-.19s20.16-8.65,41.12-11.6,21.76,2.76,42.72-.19,20.16-8.65,41.12-11.6,21.76,2.76,42.72-.19S230.57,27,251.54,24s21.76,2.76,42.73-.19"/><path class="cls-1" d="M0,56.51c21-2.95,21.76,2.76,42.72-.19s20.16-8.65,41.12-11.6,21.76,2.76,42.72-.19,20.16-8.65,41.12-11.6,21.76,2.76,42.72-.19,20.16-8.65,41.12-11.6,21.76,2.76,42.73-.19"/><path class="cls-1" d="M0,53.63c21-2.95,21.76,2.76,42.72-.19s20.16-8.65,41.12-11.6,21.76,2.76,42.72-.19,20.16-8.65,41.12-11.6,21.76,2.76,42.72-.19,20.16-8.65,41.12-11.6,21.76,2.76,42.73-.19"/><path class="cls-1" d="M0,50.75c21-2.95,21.76,2.76,42.72-.19S62.89,41.91,83.85,39s21.76,2.76,42.72-.19,20.16-8.65,41.12-11.6,21.76,2.76,42.72-.19,20.16-8.65,41.12-11.6,21.76,2.76,42.73-.19"/><path class="cls-1" d="M0,47.87c21-2.95,21.76,2.76,42.72-.19S62.89,39,83.85,36.08s21.76,2.76,42.72-.19,20.16-8.65,41.12-11.6,21.76,2.76,42.72-.19,20.16-8.65,41.12-11.6,21.76,2.76,42.73-.19"/><path class="cls-1" d="M0,45C21,42,21.78,47.75,42.73,44.8s20.16-8.65,41.12-11.6S105.61,36,126.57,33s20.16-8.65,41.12-11.6,21.76,2.76,42.72-.19,20.16-8.65,41.12-11.6,21.76,2.76,42.73-.19"/><path class="cls-1" d="M0,42.11c21-2.95,21.76,2.76,42.72-.19s20.16-8.65,41.12-11.6,21.76,2.76,42.72-.19,20.16-8.65,41.12-11.6,21.76,2.76,42.72-.19,20.16-8.65,41.12-11.6,21.76,2.76,42.73-.19"/><path class="cls-1" d="M0,39.23C21,36.28,21.78,42,42.73,39s20.16-8.65,41.12-11.6,21.76,2.76,42.72-.19,20.16-8.65,41.12-11.6,21.76,2.76,42.72-.19,20.16-8.65,41.12-11.6,21.76,2.76,42.73-.19"/><path class="cls-1" d="M0,36.35c21-2.95,21.76,2.76,42.72-.19s20.16-8.65,41.12-11.6,21.76,2.76,42.72-.19,20.16-8.65,41.12-11.6,21.76,2.76,42.72-.19S230.57,3.94,251.54,1,273.3,3.76,294.27.81"/></g></g></svg>