<svg xmlns="http://www.w3.org/2000/svg" xmlns:xlink="http://www.w3.org/1999/xlink" viewBox="0 0 460.197 395.739"><defs><style>.a{fill:#f6916b;}.b{fill:url(#a);}.c{fill:url(#b);}.d{fill:url(#c);}.e{fill:url(#d);}.f{fill:url(#e);}.g{fill:url(#f);}.h{fill:url(#g);}.i{fill:url(#h);}.j{fill:#fff;}.k{fill:url(#j);}.l{clip-path:url(#k);}.m{fill:none;stroke:#fff;stroke-width:20px;}</style><linearGradient id="a" x1="0.5" y1="-0.441" x2="0.5" y2="1.24" gradientUnits="objectBoundingBox"><stop offset="0" stop-color="#fdba61"/><stop offset="1" stop-color="#f66b96"/></linearGradient><linearGradient id="b" x1="0.5" x2="0.5" y2="1" gradientUnits="objectBoundingBox"><stop offset="0" stop-color="#f6916b"/><stop offset="1" stop-color="#fdba61"/></linearGradient><linearGradient id="c" x1="0.47" y1="0.205" x2="0.188" y2="0.665" gradientUnits="objectBoundingBox"><stop offset="0" stop-color="#e8e5e2"/><stop offset="1" stop-color="#8e9ca8"/></linearGradient><linearGradient id="d" x1="0.532" y1="0.193" x2="0.5" y2="1" gradientUnits="objectBoundingBox"><stop offset="0" stop-color="#97d9eb"/><stop offset="1" stop-color="#00c1c1"/></linearGradient><linearGradient id="e" x1="0.131" x2="0.733" gradientUnits="objectBoundingBox"><stop offset="0" stop-color="#8e9ca8"/><stop offset="1" stop-color="#333e48"/></linearGradient><linearGradient id="f" x1="0.5" x2="0.5" y2="1" xlink:href="#e"/><linearGradient id="g" x1="0.5" x2="0.5" y2="1" gradientUnits="objectBoundingBox"><stop offset="0" stop-color="#53616e"/><stop offset="1" stop-color="#97d9eb"/></linearGradient><linearGradient id="h" x1="0.5" y1="0.424" xlink:href="#d"/><linearGradient id="j" x1="0.5" y1="0" x2="0.5" y2="1" xlink:href="#c"/><clipPath id="k"><path class="a" d="M384.589,389.6a9.009,9.009,0,0,1-2.384-.319H244.786a10,10,0,0,1-9.911-8.66A144.463,144.463,0,1,1,347.289,218.95H454.232a10,10,0,0,1,10,10v16.213h46.8a9,9,0,0,1,9,9V380.6a9,9,0,0,1-9,9Z" transform="translate(4089.785 -77.119)"/></clipPath></defs><g transform="translate(4609.814 412.865) rotate(180)"><ellipse class="b" cx="144.448" cy="144.448" rx="144.448" ry="144.448" transform="translate(4149.617 17.856)"/><rect class="c" width="126.111" height="287.81" rx="63.056" transform="translate(4518.722 17.126) rotate(90)"/><path class="d" d="M98,0H198.928a106,106,0,0,1,106,106v15.971a0,0,0,0,1,0,0H0a0,0,0,0,1,0,0V98A98,98,0,0,1,98,0Z" transform="translate(4470.302 17.126) rotate(90)"/><path class="e" d="M0,0H68.747a111,111,0,0,1,111,111v73.027a0,0,0,0,1,0,0H111a111,111,0,0,1-111-111V0A0,0,0,0,1,0,0Z" transform="translate(4532.893 233) rotate(90)"/><path class="f" d="M4345.7,63h-53.523V85.053h61.866V63Z"/><path class="g" d="M106,0H243.865a106,106,0,0,1,106,106v7.121a0,0,0,0,1,0,0H0a0,0,0,0,1,0,0V106A106,106,0,0,1,106,0Z" transform="translate(4461.452 63) rotate(90)"/><ellipse class="h" cx="99.512" cy="99.512" rx="99.512" ry="99.512" transform="translate(4194.665 62.952)"/><path class="i" d="M10,0H161.334a10,10,0,0,1,10,10V205.445a0,0,0,0,1,0,0H0a0,0,0,0,1,0,0V10A10,10,0,0,1,10,0Z" transform="translate(4554.016 141) rotate(90)"/><path class="g" d="M0,0H41.568a109,109,0,0,1,109,109v1.2a0,0,0,0,1,0,0H0a0,0,0,0,1,0,0V0A0,0,0,0,1,0,0Z" transform="translate(4389.232 312.202) rotate(-180)"/><ellipse class="j" cx="46.087" cy="46.087" rx="46.087" ry="46.087" transform="translate(4294.224 97.287) rotate(45)"/><rect class="k" width="144.44" height="144.44" rx="9" transform="translate(4609.814 168.044) rotate(90)"/><g class="l"><line class="m" x1="338.704" y1="338.704" transform="translate(4622.5 198.5) rotate(135)"/></g><path class="c" d="M1845.342-783.153a67.787,67.787,0,0,1,67.787-67.787,67.787,67.787,0,0,1,67.788,67.787,67.836,67.836,0,0,1-2.442,18.1h151.445a9,9,0,0,1,9,9v31.683a9,9,0,0,1-9,9H1917.409a9.1,9.1,0,0,1-1.087-.065q-1.586.074-3.193.074A67.787,67.787,0,0,1,1845.342-783.153Z" transform="translate(2426.947 991.678)"/><ellipse class="j" cx="25.149" cy="25.149" rx="25.149" ry="25.149" transform="translate(4340.286 172.96) rotate(45)"/></g></svg>