<svg xmlns="http://www.w3.org/2000/svg" xmlns:xlink="http://www.w3.org/1999/xlink" viewBox="0 0 870 903.964"><defs><style>.a{fill:url(#a);}.b{fill:url(#b);}.c{fill:url(#c);}.d{fill:url(#d);}.e{fill:url(#f);}.f{fill:url(#g);}.g{clip-path:url(#h);}.h{fill:none;stroke:#fff;stroke-width:20px;}.i{fill:url(#i);}.j{fill:#fff;}</style><linearGradient id="a" x1="0.035" y1="0.454" x2="0.791" y2="0.465" gradientUnits="objectBoundingBox"><stop offset="0" stop-color="#e8e5e2"/><stop offset="1" stop-color="#8e9ca8"/></linearGradient><linearGradient id="b" x1="0.668" y1="0.525" x2="-0.305" y2="0.532" gradientUnits="objectBoundingBox"><stop offset="0" stop-color="#fdba61"/><stop offset="1" stop-color="#f66b96"/></linearGradient><linearGradient id="c" x1="0.5" x2="0.496" y2="0.587" gradientUnits="objectBoundingBox"><stop offset="0" stop-color="#f6916b"/><stop offset="1" stop-color="#fdba61"/></linearGradient><linearGradient id="d" x1="-0.037" y1="0.358" x2="0.38" y2="0.904" gradientUnits="objectBoundingBox"><stop offset="0" stop-color="#333e48"/><stop offset="1" stop-color="#8ea8b2"/></linearGradient><linearGradient id="f" x1="0.5" x2="0.5" y2="1" gradientUnits="objectBoundingBox"><stop offset="0" stop-color="#97d9eb"/><stop offset="1" stop-color="#00c1c1"/></linearGradient><linearGradient id="g" x1="0.458" y1="0.681" x2="0.431" y2="0.06" gradientUnits="objectBoundingBox"><stop offset="0" stop-color="#8e9ca8"/><stop offset="1" stop-color="#333e48"/></linearGradient><clipPath id="h"><path class="a" d="M98.017.083,770.756,0a97.976,97.976,0,0,1,97.993,97.993v.541a98.034,98.034,0,0,1-98.017,98.017l-672.739.083A97.976,97.976,0,0,1,0,98.642V98.1A98.034,98.034,0,0,1,98.017.083Z" transform="translate(0 614.298) rotate(-45)"/></clipPath><linearGradient id="i" x1="0.509" y1="0.991" x2="0.483" y2="-0.144" xlink:href="#b"/></defs><g transform="translate(-4502.983 -1144.152)"><ellipse class="b" cx="241.342" cy="241.342" rx="241.342" ry="241.342" transform="translate(4970.171 2048.116) rotate(-135)"/><path class="c" d="M111,0h68.2a19,19,0,0,1,19,19V440.734a19,19,0,0,1-19,19H19a19,19,0,0,1-19-19V111A111,111,0,0,1,111,0Z" transform="translate(4679.451 1437.712) rotate(-45)"/><path class="d" d="M98,0H470.866a106,106,0,0,1,106,106V300.416a0,0,0,0,1,0,0H161a161,161,0,0,1-161-161V98A98,98,0,0,1,98,0Z" transform="translate(4543.668 1720.282) rotate(-45)"/><path class="a" d="M98.017.083,770.756,0a97.976,97.976,0,0,1,97.993,97.993v.541a98.034,98.034,0,0,1-98.017,98.017l-672.739.083A97.976,97.976,0,0,1,0,98.642V98.1A98.034,98.034,0,0,1,98.017.083Z" transform="translate(4502.983 1758.45) rotate(-45)"/><ellipse class="e" cx="172.197" cy="172.197" rx="172.197" ry="172.197" transform="translate(4964.115 1933.058) rotate(-135)"/><path class="f" d="M0,0H0A256.421,256.421,0,0,1,256.421,256.421v146.79a0,0,0,0,1,0,0H0a0,0,0,0,1,0,0V0A0,0,0,0,1,0,0Z" transform="translate(5191.666 1342.845) rotate(45)"/><g class="g" transform="translate(4502.983 1144.152)"><line class="h" y1="758.132" x2="757.945" transform="translate(-18.482 39.355)"/></g><ellipse class="i" cx="129.844" cy="129.844" rx="129.844" ry="129.844" transform="translate(4954.398 1770.941) rotate(-135)"/><ellipse class="j" cx="76.779" cy="76.779" rx="76.779" ry="76.779" transform="translate(4954.547 1695.931) rotate(-135)"/></g></svg>