<svg xmlns="http://www.w3.org/2000/svg" xmlns:xlink="http://www.w3.org/1999/xlink" viewBox="0 0 609.057 615.736"><defs><style>.a{fill:#333e48;}.b{fill:url(#a);}.c{fill:#97d9eb;}.d{fill:url(#b);}.e{fill:url(#c);}.f{fill:url(#d);}.g{fill:url(#g);}.h{fill:#fff;}.i{fill:#fdba61;}.j{clip-path:url(#i);}.k{fill:none;stroke:#fff;stroke-width:20px;}</style><linearGradient id="a" x1="0.5" x2="0.5" y2="1" gradientUnits="objectBoundingBox"><stop offset="0" stop-color="#8e9ca8"/><stop offset="1" stop-color="#333e48"/></linearGradient><linearGradient id="b" x1="0.5" x2="0.5" y2="1" gradientUnits="objectBoundingBox"><stop offset="0" stop-color="#fdba61"/><stop offset="1" stop-color="#f66b96"/></linearGradient><linearGradient id="c" x1="0.5" x2="0.5" y2="1" gradientUnits="objectBoundingBox"><stop offset="0" stop-color="#e8e5e2"/><stop offset="1" stop-color="#8e9ca8"/></linearGradient><linearGradient id="d" x1="0.5" x2="0.5" y2="1" gradientUnits="objectBoundingBox"><stop offset="0" stop-color="#97d9eb"/><stop offset="1" stop-color="#00c1c1"/></linearGradient><linearGradient id="g" x1="0.5" x2="0.5" y2="1" gradientUnits="objectBoundingBox"><stop offset="0" stop-color="#f6916b"/><stop offset="1" stop-color="#fdba61"/></linearGradient><clipPath id="i"><path class="a" d="M0,615.736V0C105.7,0,191.378,84.26,191.378,188.2v24.772a186.918,186.918,0,0,1-1.62,24.6,192.937,192.937,0,0,1,1.62,24.989V424.736c0,105.486-85.514,191-191,191Z" transform="translate(4458.159 -64.236)"/></clipPath></defs><g transform="translate(1052.389 -229.764)"><g transform="translate(-5224 294)"><path class="b" d="M188.2,0h24.772c103.94,0,188.2,85.682,188.2,191.377H0C0,85.682,84.26,0,188.2,0Z" transform="translate(4649.536 -64.236) rotate(90)"/><path class="c" d="M0,0H73.578a206,206,0,0,1,206,206v80.234a0,0,0,0,1,0,0H111a111,111,0,0,1-111-111V0A0,0,0,0,1,0,0Z" transform="translate(4745.225 271.426) rotate(90)"/><path class="d" d="M106,0H259.925a231,231,0,0,1,231,231v.317a0,0,0,0,1,0,0H0a0,0,0,0,1,0,0V106A106,106,0,0,1,106,0Z" transform="translate(4662.536 395.07) rotate(180)"/><path class="e" d="M191,0H353.178a191,191,0,0,1,191,191v.378a0,0,0,0,1,0,0H0a0,0,0,0,1,0,0V191A191,191,0,0,1,191,0Z" transform="translate(4649.536 7.322) rotate(90)"/><ellipse class="f" cx="154.78" cy="154.78" rx="154.78" ry="154.78" transform="translate(4237.975 6.793)"/><path class="b" d="M0,0H82.408a171,171,0,0,1,171,171v.408a0,0,0,0,1,0,0H0a0,0,0,0,1,0,0V0A0,0,0,0,1,0,0Z" transform="translate(4553.991 394.238) rotate(180)"/><path class="d" d="M0,0H88.866A185.719,185.719,0,0,1,274.585,185.719v88.866a0,0,0,0,1,0,0h0A274.585,274.585,0,0,1,0,0V0A0,0,0,0,1,0,0Z" transform="translate(4780.585 119.652) rotate(90)"/><ellipse class="g" cx="100.695" cy="100.695" rx="100.695" ry="100.695" transform="translate(4359.478 135.991)"/><path class="b" d="M0,0H28.661a196,196,0,0,1,196,196v28.661a0,0,0,0,1,0,0H196a196,196,0,0,1-196-196V0A0,0,0,0,1,0,0Z" transform="translate(4780.661 169.577) rotate(90)"/><ellipse class="h" cx="94.87" cy="94.87" rx="94.87" ry="94.87" transform="translate(4458.991 228.497)"/><path class="i" d="M0,0H.019a208,208,0,0,1,208,208v11.668a0,0,0,0,1,0,0H208a208,208,0,0,1-208-208V0A0,0,0,0,1,0,0Z" transform="translate(4780.668 209.517) rotate(90)"/><g class="j"><line class="k" y2="634.934" transform="translate(4551.506 -64.5)"/></g></g></g></svg>