<svg xmlns="http://www.w3.org/2000/svg" xmlns:xlink="http://www.w3.org/1999/xlink" viewBox="0 0 332.294 282.652"><defs><style>.a{fill:url(#a);}.b{fill:url(#b);}.c{fill:url(#c);}.d{fill:url(#d);}</style><linearGradient id="a" x1="0.5" x2="0.5" y2="1" gradientUnits="objectBoundingBox"><stop offset="0" stop-color="#fdba61"/><stop offset="1" stop-color="#f66b96"/></linearGradient><linearGradient id="b" x1="0.5" x2="0.5" y2="1" gradientUnits="objectBoundingBox"><stop offset="0" stop-color="#8e9ca8"/><stop offset="1" stop-color="#333e48"/></linearGradient><linearGradient id="c" x1="0.5" x2="0.5" y2="1" gradientUnits="objectBoundingBox"><stop offset="0" stop-color="#97d9eb"/><stop offset="1" stop-color="#00c1c1"/></linearGradient><linearGradient id="d" x1="0.5" x2="0.5" y2="1" gradientUnits="objectBoundingBox"><stop offset="0" stop-color="#f6916b"/><stop offset="1" stop-color="#fdba61"/></linearGradient></defs><g transform="translate(-4045.793 -2910.752)"><path class="a" d="M85,0h.334a86,86,0,0,1,86,86v34.445a85,85,0,0,1-85,85H86a86,86,0,0,1-86-86V85A85,85,0,0,1,85,0Z" transform="translate(4292.42 2927.116) rotate(60)"/><path class="b" d="M117.761,0h22.867A117.761,117.761,0,0,1,258.389,117.761v0a0,0,0,0,1,0,0H0a0,0,0,0,1,0,0v0A117.761,117.761,0,0,1,117.761,0Z" transform="translate(4174.987 3193.404) rotate(-120)"/><ellipse class="c" cx="73.308" cy="73.308" rx="73.308" ry="73.308" transform="translate(4312.608 3049.37) rotate(150)"/><rect class="d" width="23.458" height="148.724" rx="9" transform="translate(4088.838 3106.157) rotate(-120)"/></g></svg>