<svg xmlns="http://www.w3.org/2000/svg" xmlns:xlink="http://www.w3.org/1999/xlink" viewBox="0 0 276.715 339.923"><defs><style>.a{fill:#97d9eb;}.b{fill:url(#a);}.c{fill:url(#b);}.d{fill:#8e9ca8;}.e{fill:url(#c);}.f{fill:#fff;}.g{fill:url(#d);}.h{clip-path:url(#e);}.i{fill:none;stroke:#fff;stroke-width:20px;}</style><linearGradient id="a" x1="0.424" y1="0.257" x2="0.388" y2="-0.152" gradientUnits="objectBoundingBox"><stop offset="0" stop-color="#f6916b"/><stop offset="1" stop-color="#fdba61"/></linearGradient><linearGradient id="b" x1="0.5" x2="0.5" y2="1" gradientUnits="objectBoundingBox"><stop offset="0" stop-color="#97d9eb"/><stop offset="1" stop-color="#00c1c1"/></linearGradient><linearGradient id="c" x1="0.5" x2="0.5" y2="1" gradientUnits="objectBoundingBox"><stop offset="0" stop-color="#8e9ca8"/><stop offset="1" stop-color="#333e48"/></linearGradient><linearGradient id="d" x1="0.5" x2="0.5" y2="1" gradientUnits="objectBoundingBox"><stop offset="0" stop-color="#fdba61"/><stop offset="1" stop-color="#f66b96"/></linearGradient><clipPath id="e"><path class="a" d="M0,0H68.9A110.844,110.844,0,0,1,179.747,110.844v20.28a68.9,68.9,0,0,1-68.9,68.9h0A110.844,110.844,0,0,1,0,89.183V0A0,0,0,0,1,0,0Z" transform="translate(523.893 2828) rotate(90)"/></clipPath></defs><g transform="translate(3031.202 -256.047) rotate(90)"><rect class="b" width="117.111" height="272.81" rx="58.556" transform="translate(537.414 2754.488) rotate(60)"/><path class="c" d="M0,0H68.9A110.844,110.844,0,0,1,179.747,110.844v20.28a68.9,68.9,0,0,1-68.9,68.9h0A110.844,110.844,0,0,1,0,89.183V0A0,0,0,0,1,0,0Z" transform="translate(523.893 2828) rotate(90)"/><path class="d" d="M4392.27,63h-100.1V85.053h115.7V63Z" transform="translate(549.135 -1376.67) rotate(90)"/><path class="e" d="M0,0H35.568a109,109,0,0,1,109,109v1.2a0,0,0,0,1,0,0H0a0,0,0,0,1,0,0V0A0,0,0,0,1,0,0Z" transform="translate(464.232 3031.202) rotate(-180)"/><ellipse class="f" cx="46.087" cy="46.087" rx="46.087" ry="46.087" transform="translate(321.224 2816.287) rotate(45)"/><ellipse class="g" cx="33.649" cy="33.649" rx="33.649" ry="33.649" transform="translate(367.286 2867.918) rotate(45)"/><g class="h"><line class="i" x2="384" transform="translate(265.5 2917.5)"/></g></g></svg>