<svg xmlns="http://www.w3.org/2000/svg" xmlns:xlink="http://www.w3.org/1999/xlink" viewBox="0 0 258.054 333.149"><defs><style>.a{fill:url(#a);}.b{fill:url(#b);}.c{fill:url(#c);}.d{fill:#fff;}</style><linearGradient id="a" x1="0.5" x2="0.5" y2="1" gradientUnits="objectBoundingBox"><stop offset="0" stop-color="#97d9eb"/><stop offset="1" stop-color="#00c1c1"/></linearGradient><linearGradient id="b" x1="0.458" y1="0.681" x2="0.431" y2="0.06" gradientUnits="objectBoundingBox"><stop offset="0" stop-color="#8e9ca8"/><stop offset="1" stop-color="#333e48"/></linearGradient><linearGradient id="c" x1="0.509" y1="0.991" x2="0.483" y2="-0.144" gradientUnits="objectBoundingBox"><stop offset="0" stop-color="#fdba61"/><stop offset="1" stop-color="#f66b96"/></linearGradient></defs><g transform="translate(5454.101 3413.974) rotate(135)"><ellipse class="a" cx="129.027" cy="129.027" rx="129.027" ry="129.027" transform="translate(1442.587 6270.675) rotate(-135)"/><path class="b" d="M0,0H0A192.136,192.136,0,0,1,192.136,192.136v10.333a0,0,0,0,1,0,0H0a0,0,0,0,1,0,0V0A0,0,0,0,1,0,0Z" transform="translate(1542.139 5899.083) rotate(45)"/><ellipse class="c" cx="96.292" cy="96.292" rx="96.292" ry="96.292" transform="translate(1465.129 6247.962) rotate(-135)"/><ellipse class="d" cx="57.531" cy="57.531" rx="57.531" ry="57.531" transform="translate(1438.038 6165.717) rotate(-135)"/></g></svg>