<svg xmlns="http://www.w3.org/2000/svg" xmlns:xlink="http://www.w3.org/1999/xlink" viewBox="0 0 80.38 89.64"><defs><style>.cls-1{fill:none;}.cls-2{fill:#333e48;}.cls-3{clip-path:url(#clip-path);}.cls-4{fill:#fff;}</style><clipPath id="clip-path" transform="translate(-0.04)"><circle class="cls-1" cx="40.23" cy="41.18" r="40.23"/></clipPath></defs><title>Logo</title><g id="Layer_2" data-name="Layer 2"><g id="Layer_1-2" data-name="Layer 1"><circle class="cls-2" cx="40.19" cy="41.18" r="40.19"/><g class="cls-3"><path class="cls-4" d="M49.64,44.18c-.38.28-.79.55-1.21.8v11.1l-7.36,2.68V48.1L37,49.58l-.89.32V89.64l4.94-1.8V63.67L48.43,61V86.36l4.91-1.79V40.31A14.48,14.48,0,0,1,49.64,44.18Z" transform="translate(-0.04)"/><path class="cls-4" d="M43.45,44.48a18.86,18.86,0,0,0,4.67-2.39,11.85,11.85,0,0,0,3-3.18,12.44,12.44,0,0,0,1.65-4.05,23.21,23.21,0,0,0,.5-5V16.35a16.25,16.25,0,0,0-.5-4.46,4.1,4.1,0,0,0-1.65-2.43,4.69,4.69,0,0,0-3-.55,19.83,19.83,0,0,0-4.64,1.19l-7.36,2.68v26.7L41,37.7V15.9L43.39,15a7.33,7.33,0,0,1,2.9-.59,1.84,1.84,0,0,1,1.49.84,4.46,4.46,0,0,1,.55,2.1q.08,1.35.08,3.19v8.59q0,2.3-.08,4A9.2,9.2,0,0,1,47.78,36a4.94,4.94,0,0,1-1.46,2,9.4,9.4,0,0,1-2.84,1.51l-.15.05h0l-7,2.54h0L28.8,44.84V0L23.89,1.79V51.54l12.24-4.39h0Z" transform="translate(-0.04)"/></g></g></g></svg>