<svg xmlns="http://www.w3.org/2000/svg" viewBox="0 0 1924.133 479.209"><defs><style>.a{fill:none;stroke:#97d9eb;stroke-miterlimit:10;}</style></defs><g transform="translate(-0.035 -303.01)"><g transform="translate(0.1 551.505)"><path class="a" d="M.1,317c137.382-18.068,142.615,17.445,279.343-1.246,137.382-18.068,132.148-53.582,268.876-72.273,137.382-18.068,142.615,17.445,279.343-1.246,137.382-18.068,132.148-53.582,268.876-72.273,137.382-18.068,142.615,17.445,279.343-1.246,137.382-18.068,132.148-54.2,268.876-72.273C1782.139,78.377,1787.372,113.89,1924.1,95.2" transform="translate(-0.1 -91.15)"/></g><g transform="translate(0.1 526.505)"><path class="a" d="M.1,312.7c137.382-18.068,142.615,17.445,279.343-1.246,137.382-18.068,132.148-53.582,268.876-72.273,137.382-18.068,142.615,17.445,279.343-1.246,137.382-18.068,132.148-53.582,268.876-72.273,137.382-18.068,142.615,17.445,279.343-1.246,137.382-18.068,132.148-54.2,268.876-72.273S1787.372,109.59,1924.1,90.9" transform="translate(-0.1 -86.85)"/></g><g transform="translate(0.1 501.505)"><path class="a" d="M.1,308.4c137.382-18.068,142.615,17.445,279.343-1.246,137.382-18.068,132.148-53.582,268.876-72.273,137.382-18.068,142.615,17.445,279.343-1.246,137.382-18.068,132.148-53.582,268.876-72.273,137.382-18.068,142.615,17.445,279.343-1.246,137.382-18.068,132.148-54.2,268.876-72.273S1787.372,105.29,1924.1,86.6" transform="translate(-0.1 -82.55)"/></g><g transform="translate(0.1 477.505)"><path class="a" d="M.1,304.1c137.382-18.068,142.615,17.445,279.343-1.246,137.382-18.068,132.148-53.582,268.876-72.273,137.382-18.068,142.615,17.445,279.343-1.246,137.382-18.068,132.148-53.582,268.876-72.273,137.382-18.068,142.615,17.445,279.343-1.246,137.382-18.068,132.148-54.2,268.876-72.273S1787.372,100.99,1924.1,82.3" transform="translate(-0.1 -78.25)"/></g><g transform="translate(0.1 452.505)"><path class="a" d="M.1,299.8c137.382-18.068,142.615,17.445,279.343-1.246,137.382-18.068,132.148-53.582,268.876-72.273,137.382-18.068,142.615,17.445,279.343-1.246,137.382-18.068,132.148-53.582,268.876-72.273,137.382-18.068,142.615,17.445,279.343-1.246,137.382-18.068,132.148-54.2,268.876-72.273S1787.372,96.69,1924.1,78" transform="translate(-0.1 -73.95)"/></g><g transform="translate(0.1 427.505)"><path class="a" d="M.1,295.4c137.382-18.068,142.615,17.445,279.343-1.246,137.382-18.068,132.148-53.582,268.876-72.273,137.382-18.068,142.615,17.445,279.343-1.246,137.382-18.068,132.148-53.582,268.876-72.273,137.382-18.068,142.615,17.445,279.343-1.246,137.382-18.068,132.148-54.2,268.876-72.273S1787.372,92.29,1924.1,73.6" transform="translate(-0.1 -69.55)"/></g><g transform="translate(0.1 402.505)"><path class="a" d="M.1,291.1c137.382-18.068,142.615,17.445,279.343-1.246,137.382-18.068,132.148-53.582,268.876-72.273,137.382-18.068,142.615,17.445,279.343-1.246,137.382-18.068,132.148-53.582,268.876-72.273,137.382-18.068,142.615,17.445,279.343-1.246,137.382-18.068,132.148-54.2,268.876-72.273S1787.372,87.99,1924.1,69.3" transform="translate(-0.1 -65.25)"/></g><g transform="translate(0.1 377.505)"><path class="a" d="M.1,286.8c137.382-18.068,142.615,17.445,279.343-1.246,137.382-18.068,132.148-53.582,268.876-72.273,137.382-18.068,142.615,17.445,279.343-1.246,137.382-18.068,132.148-53.582,268.876-72.273,137.382-18.068,142.615,17.445,279.343-1.246,137.382-18.068,132.148-54.2,268.876-72.273S1787.372,83.69,1924.1,65" transform="translate(-0.1 -60.95)"/></g><g transform="translate(0.1 353.505)"><path class="a" d="M.1,282.5c137.382-18.068,142.615,17.445,279.343-1.246,137.382-18.068,132.148-53.582,268.876-72.273,137.382-18.068,142.615,17.445,279.343-1.246,137.382-18.068,132.148-53.582,268.876-72.273,137.382-18.068,142.615,17.445,279.343-1.246,137.382-18.068,132.148-54.2,268.876-72.273S1787.372,79.39,1924.1,60.7" transform="translate(-0.1 -56.65)"/></g><g transform="translate(0.1 328.505)"><path class="a" d="M.1,278.2c137.382-18.068,142.615,17.445,279.343-1.246,137.382-18.068,132.148-53.582,268.876-72.273,137.382-18.068,142.615,17.445,279.343-1.246,137.382-18.068,132.148-53.582,268.876-72.273,137.382-18.068,142.615,17.445,279.343-1.246,137.382-18.068,132.148-54.2,268.876-72.273S1787.372,75.09,1924.1,56.4" transform="translate(-0.1 -52.35)"/></g><g transform="translate(0.1 303.505)"><path class="a" d="M.1,273.8c137.382-18.068,142.615,17.445,279.343-1.246,137.382-18.068,132.148-53.582,268.876-72.273,137.382-18.068,142.615,17.445,279.343-1.246,137.382-18.068,132.148-53.582,268.876-72.273,137.382-18.068,142.615,17.445,279.343-1.246,137.382-18.068,132.148-54.2,268.876-72.273S1787.372,70.69,1924.1,52" transform="translate(-0.1 -47.95)"/></g></g></svg>