<svg xmlns="http://www.w3.org/2000/svg" viewBox="0 0 1924.133 305.209"><defs><style>.a{fill:none;stroke:#97d9eb;stroke-miterlimit:10;}</style></defs><g transform="translate(-0.035 -477.01)"><g transform="translate(0.1 551.505)"><path class="a" d="M.1,317c137.382-18.068,142.615,17.445,279.343-1.246,137.382-18.068,132.148-53.582,268.876-72.273,137.382-18.068,142.615,17.445,279.343-1.246,137.382-18.068,132.148-53.582,268.876-72.273,137.382-18.068,142.615,17.445,279.343-1.246,137.382-18.068,132.148-54.2,268.876-72.273C1782.139,78.377,1787.372,113.89,1924.1,95.2" transform="translate(-0.1 -91.15)"/></g><g transform="translate(0.1 526.505)"><path class="a" d="M.1,312.7c137.382-18.068,142.615,17.445,279.343-1.246,137.382-18.068,132.148-53.582,268.876-72.273,137.382-18.068,142.615,17.445,279.343-1.246,137.382-18.068,132.148-53.582,268.876-72.273,137.382-18.068,142.615,17.445,279.343-1.246,137.382-18.068,132.148-54.2,268.876-72.273S1787.372,109.59,1924.1,90.9" transform="translate(-0.1 -86.85)"/></g><g transform="translate(0.1 501.505)"><path class="a" d="M.1,308.4c137.382-18.068,142.615,17.445,279.343-1.246,137.382-18.068,132.148-53.582,268.876-72.273,137.382-18.068,142.615,17.445,279.343-1.246,137.382-18.068,132.148-53.582,268.876-72.273,137.382-18.068,142.615,17.445,279.343-1.246,137.382-18.068,132.148-54.2,268.876-72.273S1787.372,105.29,1924.1,86.6" transform="translate(-0.1 -82.55)"/></g><g transform="translate(0.1 477.505)"><path class="a" d="M.1,304.1c137.382-18.068,142.615,17.445,279.343-1.246,137.382-18.068,132.148-53.582,268.876-72.273,137.382-18.068,142.615,17.445,279.343-1.246,137.382-18.068,132.148-53.582,268.876-72.273,137.382-18.068,142.615,17.445,279.343-1.246,137.382-18.068,132.148-54.2,268.876-72.273S1787.372,100.99,1924.1,82.3" transform="translate(-0.1 -78.25)"/></g></g></svg>